<svg width="472" height="501" viewBox="0 0 472 501" xmlns="http://www.w3.org/2000/svg"><g fill-rule="nonzero" fill="none"><path d="M222.587 469.334c3.413 3.413 3.413 8.533 0 11.947l-11.947 11.947c-3.413 3.413-8.533 3.413-11.947 0L7.547 302.08c-3.413-3.413-3.413-8.533 0-11.947l11.947-11.947c3.413-3.413 8.533-3.413 11.947 0l5.973 5.973 179.2 179.2.853.853 5.12 5.122z" fill="#EEB479"/><path d="M222.587 278.187c-4.267-4.267-8.533-7.68-12.8-11.093v-.853l55.467-55.467c3.413 4.267 6.827 8.533 11.093 12.8 36.693 36.693 95.573 36.693 131.413 0 36.693-36.693 36.693-95.573 0-131.413-17.92-17.92-40.96-29.867-64-29.867V2.56l16.213 5.973 17.92 28.16c19.627 5.973 38.4 16.213 53.76 32.427 49.493 49.493 49.493 129.707 0 179.2-45.227 45.227-116.907 49.493-166.4 11.093l-31.573 31.573c-3.413-5.119-6.826-9.386-11.093-12.799" fill="#D8E2E3"/><path d="M37.414 284.16l5.973-5.973c45.227-45.227 116.907-49.493 166.4-11.093 4.267 3.413 8.533 6.827 12.8 11.093 4.267 4.266 7.68 8.533 11.093 12.8 38.4 49.493 34.133 121.173-11.093 166.4l-5.973 5.973-.853-.853L37.414 284.16z" fill="#A2776E"/><path d="M204.667 500.053c-3.413 0-6.827-.853-9.387-3.413L4.134 305.493c-5.12-5.12-5.12-12.8 0-17.92l11.947-11.947c5.12-5.12 12.8-5.12 17.92 0l2.56 2.56 2.56-2.56c51.2-51.2 133.973-51.2 185.173 0 3.413 3.413 5.973 5.973 8.533 9.387l28.16-28.16c1.707-1.707 4.267-1.707 5.973 0 48.64 36.693 117.76 32.427 161.28-11.093 23.04-23.04 35.84-53.76 35.84-87.04 0-32.427-12.8-63.147-35.84-87.04-14.507-14.507-32.427-25.6-52.053-30.72-.853 0-1.707-.853-2.56-1.707L356.56 12.8l-9.387-3.413V58.88c22.187.853 43.52 11.947 63.147 31.573 37.547 37.547 37.547 99.84 0 137.387C391.547 246.614 367.653 256 341.2 256c-26.453 0-50.347-10.24-69.12-28.16-2.56-2.56-5.973-5.973-8.533-9.387l-30.72 30.72c-1.707 1.707-4.267 1.707-5.973 0-1.707-1.707-1.707-4.267 0-5.973l34.133-34.133c.853-.853 2.56-1.707 3.413-.853.853 0 2.56.853 3.413 1.707 3.413 4.267 6.827 8.533 10.24 12.8 17.067 17.067 39.253 25.6 63.147 25.6 23.893 0 46.08-9.387 63.147-25.6 34.987-34.987 34.987-91.307 0-125.44-12.8-12.8-34.133-29.013-61.44-29.013-2.56 0-4.267-1.707-4.267-4.267V4.267c0-1.707.853-2.56 1.707-3.413C341.2 0 342.906 0 344.613 0l16.213 5.973c.853 0 1.707.853 1.707 1.707L379.6 34.134c20.48 5.973 39.253 17.92 53.76 32.427 24.747 24.747 38.4 58.027 38.4 93.013 0 34.986-13.653 68.267-38.4 93.013-45.227 45.227-117.76 51.2-168.96 13.653l-26.453 26.453c16.213 22.187 24.747 48.64 24.747 76.8 0 34.987-13.653 68.267-38.4 93.013l-2.56 2.56 2.56 2.56c5.12 5.12 5.12 12.8 0 17.92l-11.947 11.947c-.853.854-4.266 2.56-7.68 2.56zm-179.2-220.16c-.853 0-2.56 0-2.56.853L10.96 292.693c-1.707 1.707-1.707 4.267 0 5.973l191.147 191.147c1.707 1.707 4.267 1.707 5.973 0l11.947-11.947c1.707-1.707 1.707-4.267 0-5.973l-5.973-5.973c-.853-.853-.853-.853-.853-1.707l.853-.853 5.973-5.973c23.04-23.04 35.84-53.76 35.84-87.04 0-33.28-12.8-63.147-35.84-87.04-47.787-47.787-125.44-47.787-173.227 0l-2.56 2.56 152.747 152.747c1.707 1.707 1.707 4.267 0 5.973-1.707 1.707-4.267 1.707-5.973 0l-161.28-161.28c-2.56-3.414-3.413-3.414-4.267-3.414z" fill="#51565F"/></g></svg>
